HIERARCHY
ROOT Hips
{
	OFFSET -0.179506 -22.333345 2.821913
	CHANNELS 6 Xposition Yposition Zposition Zrotation Yrotation Xrotation 
	JOINT LeftUpLeg
	{
		OFFSET 6.951974 -9.140623 -0.681533
		CHANNELS 3 Zrotation Yrotation Xrotation
		JOINT LeftLeg
		{
			OFFSET 3.427654 -37.519855 -0.449580
			CHANNELS 3 Zrotation Yrotation Xrotation
			JOINT LeftFoot
			{
				OFFSET -1.359570 -39.796059 -4.369333
				CHANNELS 3 Zrotation Yrotation Xrotation
				JOINT LeftToe
				{
					OFFSET 2.635814 -5.579078 11.928840
					CHANNELS 3 Zrotation Yrotation Xrotation
					End Site
					{
						OFFSET 0.000000 0.000000 0.000000
					}
				}
			}
		}
	}
	JOINT RightUpLeg
	{
		OFFSET -6.767048 -9.052170 -0.431982
		CHANNELS 3 Zrotation Yrotation Xrotation
		JOINT RightLeg
		{
			OFFSET -3.829005 -38.256897 -0.885003
			CHANNELS 3 Zrotation Yrotation Xrotation
			JOINT RightFoot
			{
				OFFSET 1.577377 -39.841461 -4.231180
				CHANNELS 3 Zrotation Yrotation Xrotation
				JOINT RightToe
				{
					OFFSET -2.537174 -4.814398 12.334795
					CHANNELS 3 Zrotation Yrotation Xrotation
					End Site
					{
						OFFSET 0.000000 0.000000 0.000000
					}
				}
			}
		}
	}
	JOINT Spine
	{
		OFFSET -0.253288 10.896323 -2.669631
		CHANNELS 3 Zrotation Yrotation Xrotation
		JOINT Spine1
		{
			OFFSET 0.548704 13.518043 0.109247
			CHANNELS 3 Zrotation Yrotation Xrotation
			JOINT Spine2
			{
				OFFSET 0.145701 5.292222 2.542457
				CHANNELS 3 Zrotation Yrotation Xrotation
				JOINT Neck
				{
					OFFSET -0.277840 21.387037 -4.285703
					CHANNELS 3 Zrotation Yrotation Xrotation
					JOINT Head
					{
						OFFSET 0.515184 6.496960 5.134897
						CHANNELS 3 Zrotation Yrotation Xrotation
						End Site
						{
							OFFSET 0.000000 0.000000 0.000000
						}
					}
				}
				JOINT LeftShoulder
				{
					OFFSET 7.884473 12.174932 -3.408961
					CHANNELS 3 Zrotation Yrotation Xrotation
					JOINT LeftArm
					{
						OFFSET 9.097692 3.046888 -0.886815
						CHANNELS 3 Zrotation Yrotation Xrotation
						JOINT LeftForeArm
						{
							OFFSET 25.961220 -1.277207 -2.745643
							CHANNELS 3 Zrotation Yrotation Xrotation
							JOINT LeftHand
							{
								OFFSET 24.923361 0.898606 -0.117091
								CHANNELS 3 Zrotation Yrotation Xrotation
								End Site
								{
									OFFSET 0.000000 0.000000 0.000000
								}
							}
						}
					}
				}
				JOINT RightShoulder
				{
					OFFSET -8.175920 11.883285 -3.861528
					CHANNELS 3 Zrotation Yrotation Xrotation
					JOINT RightArm
					{
						OFFSET -9.601238 3.255117 -0.914307
						CHANNELS 3 Zrotation Yrotation Xrotation
						JOINT RightForeArm
						{
							OFFSET -25.374195 -1.332924 -2.140099
							CHANNELS 3 Zrotation Yrotation Xrotation
							JOINT RightHand
							{
								OFFSET -25.529810 0.777228 -0.555919
								CHANNELS 3 Zrotation Yrotation Xrotation
								End Site
								{
									OFFSET 0.000000 0.000000 0.000000
								}
							}
						}
					}
				}
			}
		}
	}
}
MOTION
Frames: 6
Frame Time: 0.033333
80.596222 -13.800126 88.911728 -110.543141 -8.972495 95.130028 -5.360410 -16.901467 -38.353429 -16.489990 -2.126138 39.012215 13.679816 8.222929 -10.277482 nan nan nan 8.804523 -6.543460 12.014531 6.278202 -2.350215 52.891520 5.665624 -8.252350 -4.047191 nan nan nan -7.950476 19.271149 9.025357 -6.121396 7.440312 12.798067 -3.248563 9.567511 -7.514001 17.231148 -31.958029 -12.661158 24.591756 -18.412397 -28.328055 -18.725945 0.568964 -1.204649 -31.857753 22.052311 19.626665 -14.884488 -63.404010 35.726501 -9.706415 -16.400114 16.333937 6.805193 18.216934 3.282703 7.947614 6.147740 -2.784210 74.873713 78.039199 89.808679 1.846436 22.301397 6.531946 
78.741226 -11.915457 88.362755 -110.769799 -9.085204 94.974015 -6.342303 -17.244050 -36.813913 -16.572544 -2.855116 41.427433 16.421176 11.498115 -13.878888 nan nan nan 7.659977 -6.729349 9.682827 5.547626 -4.065579 59.004032 4.741906 -9.638704 -5.794525 nan nan nan -8.319150 18.568146 9.159498 -5.867490 7.147018 12.995426 -3.255960 9.050514 -7.430112 16.880318 -31.585674 -12.170444 24.858889 -17.359901 -28.423091 -19.483626 -0.539216 -1.157204 -31.253295 20.637983 19.476392 -14.786095 -65.768487 34.948816 -10.180011 -16.052727 15.961228 7.863588 17.666450 3.070757 9.562429 4.021221 -1.434331 74.346386 78.258502 90.320393 2.829472 21.302408 6.158279 
76.967407 -10.086156 87.769310 -110.819484 -9.159796 94.884103 -6.495393 -16.969640 -36.551382 -14.928704 -0.880057 45.038863 15.873243 10.124052 -17.450910 nan nan nan 6.765672 -6.516538 7.021067 3.774423 -5.870186 65.142768 4.396020 -10.745417 -7.217720 nan nan nan -8.433184 17.506153 9.961539 -5.914556 6.769337 11.985354 -3.128218 8.546043 -6.948655 16.176387 -30.533216 -10.861178 25.562613 -16.447590 -29.315892 -20.162543 -1.247707 -1.144229 -30.820736 18.815259 19.754506 -12.874049 -68.160669 32.810574 -11.169053 -16.419576 16.437970 8.879844 16.806761 3.192092 11.194617 2.176363 -0.047017 73.035870 78.801400 90.155595 3.662342 21.369139 5.442480 
75.274841 -8.318640 87.319382 -110.772399 -9.800239 94.916618 -6.245806 -18.217480 -36.268348 -13.393018 1.402427 47.031464 14.751859 8.836887 -19.290968 nan nan nan 5.237245 -5.903547 3.915956 1.810127 -7.370946 71.314799 4.149584 -11.329668 -8.508382 nan nan nan -9.309325 16.452878 10.776258 -5.947670 6.220122 11.443833 -2.806306 7.967357 -7.016099 15.190800 -29.798669 -9.621085 26.536261 -15.161782 -30.120500 -21.117781 -2.101086 -1.277840 -30.253905 16.953098 20.285849 -8.846314 -70.527180 28.519513 -10.582494 -17.390627 16.349255 9.933918 15.932656 3.106431 12.508061 0.270590 1.592712 71.094738 79.180534 88.730736 3.947496 21.951057 4.893238 
73.568619 -6.445921 86.930275 -110.697391 -10.387397 94.379045 -5.846573 -19.151221 -34.622879 -14.803772 1.487880 47.553801 13.895933 9.929781 -20.516059 nan nan nan 3.824716 -5.178629 1.390437 0.660662 -8.166923 76.915732 3.383093 -12.129798 -9.656560 nan nan nan -10.020777 15.543283 12.079742 -5.986678 5.675665 10.976591 -2.406643 7.444817 -6.725400 14.701735 -29.218056 -9.063145 27.336779 -13.803482 -30.822162 -22.228775 -3.499829 -1.357809 -29.336863 14.976098 20.449611 -4.414384 -72.757095 23.583489 -8.917314 -18.957288 15.107078 10.990095 15.463833 2.712049 13.674174 -2.405867 2.666871 70.989400 78.921877 89.106655 4.692980 22.023356 5.406561 
71.880249 -4.524893 86.601776 -110.378353 -10.971168 93.747553 -5.832996 -19.855316 -32.240126 -16.644721 0.594517 47.447520 13.395963 11.607696 -21.744669 nan nan nan 2.461466 -4.326084 -1.292443 0.350581 -8.740157 82.176658 2.267170 -12.586914 -10.870493 nan nan nan -10.530636 14.596057 13.538950 -6.095433 5.167704 10.865474 -2.189416 6.716006 -6.634485 14.729202 -28.452548 -9.326794 27.937143 -12.824189 -31.198882 -23.082288 -4.859886 -1.373484 -28.303380 12.686114 20.499182 2.506827 -75.720924 16.270086 -7.739644 -19.398185 15.126630 12.131092 14.844348 2.468666 15.000017 -5.199292 3.652577 71.666546 78.967160 90.248963 6.063295 21.510789 5.921550 
